# xmcd
#
# Track frame offsets: 
#        150
#        11970
#        21032
#        31520
#        41747
#        56602
#        67127
#        78145
#        88507
#        99010
#        112892
#        124100
#        137215
#        150070
#        162037
#        172577
#        187210
#        198517
#        210040
#        220677
#        231880
#        247342
#
# Disc length: 3474 seconds
#
# Revision: 0
# Processed by: cddbd v1.5.1PL2 Copyright (c) Steve Scherf et al.
# Submitted via: ExactAudioCopy v0.95b4
#
DISCID=120d9016
DTITLE=Don Gibson - Greatest Hits
DYEAR=2003
DGENRE=Country
TTITLE0=Oh Lonesome Me
TTITLE1=Blue Blue Day
TTITLE2=Just One Time
TTITLE3=Sea of Heartbreak
TTITLE4=Woman Sensuous Woman
TTITLE5=Country Green
TTITLE6=Give Myself a Party
TTITLE7=Lonesome #1
TTITLE8=Look Who's Blue
TTITLE9=Touch The Morning
TTITLE10=Who Cares For Me
TTITLE11=Rings of Gold
TTITLE12=If You Ever Get To Houston
TTITLE13=Bring Back Your Love To Me
TTITLE14=Far Far Away
TTITLE15=I Can't Stop Loving You
TTITLE16=I'd Be a Legend in My Time
TTITLE17=One Day at a Time
TTITLE18=Funny Familiar Forgotten Feelings
TTITLE19=Don't Stop Loving Me
TTITLE20=Sweet Dreams
TTITLE21=There Goes My Everything
EXTD=
EXTT0=
EXTT1=
EXTT2=
EXTT3=
EXTT4=
EXTT5=
EXTT6=
EXTT7=
EXTT8=
EXTT9=
EXTT10=
EXTT11=
EXTT12=
EXTT13=
EXTT14=
EXTT15=
EXTT16=
EXTT17=
EXTT18=
EXTT19=
EXTT20=
EXTT21=
PLAYORDER=
